<svg xmlns="http://www.w3.org/2000/svg" width="24" height="24" viewBox="0 0 24 24" fill="none">
    <!-- down -->
    <symbol id="icon-down">
        <path d="M15.8333 7.5L10 13.3333L4.16668 7.5" stroke="#3A3A3A" stroke-width="1.8"
            stroke-linecap="round" stroke-linejoin="round" />
    </symbol>

    <!-- search -->
    <symbol id="icon-search">
        <path
            d="M16.6667 16.6666L12.5802 12.5801M12.5802 12.5801C13.5604 11.5999 14.1667 10.2457 14.1667 8.74992C14.1667 5.75838 11.7415 3.33325 8.75 3.33325C5.75846 3.33325 3.33333 5.75838 3.33333 8.74992C3.33333 11.7415 5.75846 14.1666 8.75 14.1666C10.2458 14.1666 11.5999 13.5603 12.5802 12.5801Z"
            stroke="#333333" stroke-width="1.8" stroke-linecap="round" stroke-linejoin="round" />
    </symbol>

    <!-- heart -->
    <symbol id="icon-heart">
        <path
            d="M11.9996 21.054C-8 9.99991 5.99999 -2.00009 11.9996 5.58797C18 -2.00009 32 9.99991 11.9996 21.054Z"
            stroke="#262F56" stroke-width="1.8" />
    </symbol>

    <!-- cart -->
    <symbol id="icon-cart">
        <path
            d="M1 2.5H2.65424C3.13263 2.5 3.37183 2.5 3.56628 2.58674C3.73771 2.66321 3.88415 2.78638 3.98886 2.94217C4.10763 3.11888 4.14862 3.35454 4.23058 3.82585L4.6087 6M4.6087 6L5.49173 11.0774C5.67091 12.1077 5.7605 12.6228 6.02583 12.9939C6.25945 13.3207 6.58606 13.5695 6.96311 13.708C7.39133 13.8654 7.91176 13.815 8.95264 13.7143L18.614 12.7793C19.6298 12.681 20.1378 12.6318 20.5221 12.4033C20.8653 12.1993 21.1395 11.8972 21.3095 11.536C21.5 11.1314 21.5 10.6211 21.5 9.6005V9.6005C21.5 8.51582 21.5 7.97348 21.2922 7.55394C21.1068 7.17971 20.809 6.8729 20.4404 6.67654C20.0272 6.4564 19.4851 6.44036 18.4009 6.40826L4.6087 6Z"
            stroke="#262F56" stroke-width="1.8" stroke-linecap="round" stroke-linejoin="round" />
        <circle cx="8.5" cy="19" r="2" stroke="#262F56" stroke-width="1.8" />
        <circle cx="18" cy="19" r="2" stroke="#262F56" stroke-width="1.8" />
    </symbol>

    <!-- prev_next -->
    <symbol id="icon-prev_next">
        <path d="M15.8333 7.5L10 13.3333L4.16668 7.5" stroke="#ffffff" stroke-width="1.8"
            stroke-linecap="round" stroke-linejoin="round" />
    </symbol>

    <!-- share -->
    <symbol id="icon-share">
        <path
            d="M18 16C17.212 16 16.5 16.31 15.966 16.807L8.91 12.7C8.96 12.47 9 12.24 9 12C9 11.76 8.96 11.53 8.91 11.3L15.96 7.19C16.5 7.69 17.21 8 18 8C19.66 8 21 6.66 21 5C21 3.34 19.66 2 18 2C16.34 2 15 3.34 15 5C15 5.24 15.04 5.47 15.09 5.7L8.04 9.81C7.5 9.31 6.79 9 6 9C4.34 9 3 10.34 3 12C3 13.66 4.34 15 6 15C6.79 15 7.5 14.69 8.04 14.19L15.088 18.308C15.0317 18.5344 15.0022 18.7667 15 19C15 19.5933 15.1759 20.1734 15.5056 20.6667C15.8352 21.1601 16.3038 21.5446 16.8519 21.7716C17.4001 21.9987 18.0033 22.0581 18.5853 21.9424C19.1672 21.8266 19.7018 21.5409 20.1213 21.1213C20.5409 20.7018 20.8266 20.1672 20.9424 19.5853C21.0581 19.0033 20.9987 18.4001 20.7716 17.8519C20.5446 17.3038 20.1601 16.8352 19.6667 16.5056C19.1734 16.1759 18.5933 16 18 16Z"
            fill="white" />
    </symbol>


    <!-- like -->
    <symbol id="icon-like">
        <path
            d="M11.9996 21.054C-8 9.99991 5.99999 -2.00009 11.9996 5.58797C18 -2.00009 32 9.99991 11.9996 21.054Z"
            stroke="#fff" stroke-width="1.8" />
    </symbol>

    <!-- send mail -->
    <symbol id="icon-send-mail">
        <path
            d="M17.7825 0.217449C17.6813 0.116704 17.5534 0.046952 17.4139 0.0163941C17.2744 -0.0141638 17.1291 -0.00425713 16.995 0.0449493L0.495001 6.04495C0.352702 6.09892 0.230191 6.19491 0.143739 6.32016C0.0572872 6.44542 0.0109863 6.59401 0.0109863 6.7462C0.0109863 6.89839 0.0572872 7.04698 0.143739 7.17223C0.230191 7.29749 0.352702 7.39348 0.495001 7.44745L6.9375 10.0199L11.6925 5.24995L12.75 6.30745L7.9725 11.0849L10.5525 17.5275C10.6081 17.667 10.7043 17.7866 10.8286 17.8709C10.953 17.9551 11.0998 18.0001 11.25 17.9999C11.4016 17.9968 11.5486 17.9479 11.6718 17.8595C11.795 17.7711 11.8885 17.6475 11.94 17.5049L17.94 1.00495C17.9911 0.872257 18.0034 0.727772 17.9755 0.588342C17.9477 0.448912 17.8807 0.320282 17.7825 0.217449Z"
            fill="white" />
    </symbol>


    <!-- address -->
    <symbol id="icon-address">
        <path fill-rule="evenodd" clip-rule="evenodd"
            d="M10.9741 18.5413C13.0898 17.0976 17.9167 13.3048 17.9167 8.74992C17.9167 4.37766 14.3723 0.833252 10.0001 0.833252C5.62781 0.833252 2.0834 4.37766 2.0834 8.74992C2.0834 13.3048 6.91032 17.0976 9.02602 18.5413C9.61765 18.945 10.3825 18.945 10.9741 18.5413ZM10.0001 11.2499C11.3808 11.2499 12.5001 10.1306 12.5001 8.74992C12.5001 7.36921 11.3808 6.24992 10.0001 6.24992C8.61935 6.24992 7.50007 7.36921 7.50007 8.74992C7.50007 10.1306 8.61935 11.2499 10.0001 11.2499Z"
            fill="#898989" />
    </symbol>


    <!-- phone -->
    <symbol id="icon-phone">
        <path
            d="M13.4308 13.0668L12.9153 13.8401C12.8124 13.9944 12.6763 14.1261 12.497 14.1735C11.9095 14.3287 10.35 14.3988 7.97557 12.0244C5.60117 9.65004 5.67125 8.09046 5.82648 7.50302C5.87386 7.32368 6.00556 7.1876 6.1599 7.0847L6.93315 6.5692C7.50885 6.1854 7.66441 5.40757 7.28061 4.83187L5.82021 2.64126C5.48521 2.13876 4.8394 1.94678 4.2843 2.18468L3.62551 2.46702C3.12505 2.6815 2.71681 3.06643 2.47331 3.55343C2.26987 3.96031 2.1122 4.38877 2.09083 4.84317C2.02351 6.27515 2.3375 9.80312 6.26719 13.7328C10.1969 17.6625 13.7248 17.9765 15.1568 17.9092C15.6112 17.8878 16.0397 17.7301 16.4465 17.5267C16.9335 17.2832 17.3185 16.8749 17.533 16.3745L17.8153 15.7157C18.0532 15.1606 17.8612 14.5148 17.3587 14.1798L15.1681 12.7194C14.5924 12.3356 13.8146 12.4911 13.4308 13.0668Z"
            fill="#898989" />
    </symbol>


</svg>
        